<?xml version="1.0" encoding="UTF-8" standalone="no"?>
<!-- Created with Inkscape (http://www.inkscape.org/) -->

<svg
   xmlns:dc="http://purl.org/dc/elements/1.1/"
   xmlns:cc="http://creativecommons.org/ns#"
   xmlns:rdf="http://www.w3.org/1999/02/22-rdf-syntax-ns#"
   xmlns:svg="http://www.w3.org/2000/svg"
   xmlns="http://www.w3.org/2000/svg"
   xmlns:sodipodi="http://sodipodi.sourceforge.net/DTD/sodipodi-0.dtd"
   xmlns:inkscape="http://www.inkscape.org/namespaces/inkscape"
   width="500"
   height="350"
   id="svg6020"
   version="1.1"
   inkscape:version="0.48.2 r9819"
   sodipodi:docname="mb.svg">

  <defs
     id="defs6022" />
  <sodipodi:namedview
     id="base"
     pagecolor="#7e8185"
     bordercolor="#666666"
     borderopacity="1.0"
     inkscape:pageopacity="1"
     inkscape:pageshadow="2"
     inkscape:zoom="6.7974435"
     inkscape:cx="4.7320401"
     inkscape:cy="34.304208"
     inkscape:document-units="px"
     inkscape:current-layer="layer1"
     showgrid="false"
     inkscape:window-width="985"
     inkscape:window-height="578"
     inkscape:window-x="0"
     inkscape:window-y="0"
     inkscape:window-maximized="1"
     fit-margin-top="5"
     fit-margin-left="5"
     fit-margin-right="5"
     fit-margin-bottom="5" />

  <metadata
     id="metadata6025">
    <rdf:RDF>
      <cc:Work
         rdf:about="">
        <dc:format>image/svg+xml</dc:format>
        <dc:type
           rdf:resource="http://purl.org/dc/dcmitype/StillImage" />
        <dc:title></dc:title>
      </cc:Work>
    </rdf:RDF>
  </metadata>
  <g
     inkscape:label="Layer 1"
     inkscape:groupmode="layer"
     id="layer1"
     transform="scale(4) translate(-10.628605,-502.02461)">

    <path
       inkscape:connector-curvature="0"
       style="fill:none;stroke:#ffffff;stroke-width:0.3;stroke-miterlimit:4;stroke-dasharray:none"
       d="m 83.855512,507.41524 c -2.197402,1.80664 -4.844716,3.17844 -7.269983,4.73246 -6.605634,3.96411 -13.053095,8.21108 -19.668841,12.1596 -1.214043,0.43388 -2.282997,1.28388 -3.432249,1.86994 -6.077248,4.01214 1.680582,-0.90753 -5.894685,3.92282 -0.365538,0.15736 -1.159654,-0.0592 -1.729793,-0.16058 -0.686995,-0.12209 -1.804643,-0.33206 -2.023322,-0.53669 0.617689,-1.12413 1.94944,-1.61851 2.897563,-2.43493 7.949189,-5.52493 15.807359,-11.19327 23.887442,-16.49531 0.626433,-0.59478 1.874767,-0.39497 2.148762,-1.34599 -0.04635,-0.55096 -0.858324,-0.67053 -1.168119,-0.80278 0.0563,-0.68682 -0.903668,-0.59614 -1.043134,-0.0385 -0.909929,1.48014 -2.749267,2.12643 -4.066034,3.21626 -6.761748,4.70595 -13.596097,9.39392 -20.171216,14.31994 -0.543561,0.17431 -1.056434,0.56491 -1.52385,0.9518 -0.377536,-0.0418 -0.385627,0.44281 -0.764317,0.4711 -0.36146,0.20761 -0.61783,0.69148 -1.062373,0.39899 -0.455494,-0.0906 -0.476845,0.52643 -0.668174,0.64414 -0.834984,0.0846 -1.341181,1.09159 -2.08147,1.20658 -10.027426,1.71187 -17.036898,2.88757 -19.783699,5.30811 0,0 -0.204869,0.67527 -0.266563,2.91491 0.349709,1.46827 0.67081,1.64414 1.677634,2.10737 0.344878,0.15241 0.529296,0.0406 0.927773,0.55762 0.398476,0.51701 0.108171,1.43325 0.43318,2.05228 0.381973,0.72751 1.167217,1.15991 1.696345,1.78858 0.656249,0.77968 1.183261,1.68256 1.826686,2.4516 0.681266,0.3404 1.171111,1.01504 1.889187,1.28349 0.378228,-0.15063 0.934587,0.34261 1.100811,0.45187 -0.38095,0.31617 -0.286592,0.88719 -0.903205,0.92178 -1.345734,0.76846 -2.906332,1.32992 -4.024034,2.42874 -0.124227,0.23987 -0.05768,0.50142 -0.398995,0.45667 -0.429591,0.0406 -0.739673,0.60925 -1.100812,0.22112 -0.647947,0.15438 -1.316645,0.57719 -1.46135,1.23542 -0.137338,0.26587 -0.05568,0.53579 -0.432637,0.56244 -0.988718,0.84857 -1.852222,1.81409 -2.799806,2.72926 -0.664854,0.74588 -1.367901,1.52672 -1.651541,2.4864 -0.328158,0.66859 -1.324614,1.40204 -0.83643,2.22087 0.798973,0.88117 1.995757,1.28039 3.167851,1.27387 0.06186,-0.41307 -0.238999,-1.14051 -0.0047,-1.41328 1.217167,-0.61849 2.236804,-1.64528 3.129412,-2.66793 0.549298,-0.90896 1.483054,-1.58201 2.158367,-2.42275 1.962747,-1.63913 4.442949,-2.51454 6.556845,-3.92738 1.873376,-0.98763 4.139837,-0.97517 5.907901,-2.15356 0.282624,-0.32485 0.45988,-0.88278 1.023898,-0.59608 0.531593,0.0689 0.609321,0.27425 0.03365,0.42301 -1.176709,0.3877 -2.290089,0.96712 -3.139025,1.86515 -2.259354,1.50353 -4.666137,2.86368 -6.734701,4.60998 -1.299847,1.71783 -3.197157,3.02165 -4.393662,4.79746 -0.643256,0.70359 -1.615793,0.87533 -2.201639,1.65363 -0.602507,0.77623 -1.721409,1.38042 -1.80746,2.442 0.162994,0.38229 -0.01446,0.69548 -0.423022,0.68741 -1.841716,1.00672 -3.042854,2.93869 -3.259195,5.00415 -0.122865,1.38039 -0.263335,2.98295 0.519164,4.19177 0.66916,0.48167 0.952969,-0.58879 1.139268,-1.03353 0.547899,-1.67299 1.329859,-3.29495 2.768874,-4.37442 0.528502,-0.53971 1.385944,-1.05249 1.350795,-1.88437 0.380935,-0.21011 0.8841,0.26669 1.245023,-0.15383 1.038589,-0.90128 2.135678,-1.82943 2.821759,-3.03326 0.0803,-0.60487 0.635256,-1.01548 1.187339,-1.13928 0.424683,-0.2517 0.151426,-0.92322 0.725875,-0.83643 0.436205,-0.055 0.485231,-0.65296 0.634535,-0.82681 0.570263,0.0578 0.916141,-0.60183 0.841229,-1.04314 0.979457,0.13543 1.319906,-1.11648 2.080348,-1.50107 1.026606,-0.78513 2.083038,-1.57401 3.11129,-2.31574 1.739452,-1.04071 3.230444,-2.518 5.198974,-3.19353 1.216628,-0.70881 2.91281,-0.69491 3.799864,-1.88274 0.160227,-0.76939 1.143361,-0.17848 1.600764,-0.12501 1.039973,0.38632 2.184026,0.68931 3.20151,1.01429 0.109865,0.21489 0.725937,0.20794 0.264381,0.38457 -0.336142,0.4059 -0.744735,0.70329 -1.293095,0.67779 -1.026467,0.38668 -1.468902,1.58996 -1.73536,2.56218 0.119532,1.8353 -0.405562,3.68704 -0.414854,5.53674 -0.01769,1.31519 -0.469031,2.80271 0.361984,3.96201 0.266043,0.54911 -0.0082,1.40435 0.615305,1.74498 -0.162502,0.47232 -0.10399,1.08145 0.32688,1.31233 -0.07021,0.54492 0.154457,1.03949 0.336496,1.51422 -0.237676,0.59571 0.4183,0.94143 0.504735,1.43252 -0.210573,1.96239 0.523455,3.85876 1.028712,5.72041 0.145813,0.49049 0.752996,0.33088 1.057557,0.4807 0.143213,0.58876 -0.161673,1.24644 0.269196,1.78823 0.619474,0.97664 1.436353,1.83695 1.841116,2.95155 0.915958,1.84614 1.546232,3.89969 2.836171,5.5089 0.698741,0.27296 0.454235,-0.77207 0.271136,-1.1322 -1.005164,-2.58434 -1.791647,-5.41134 -1.266206,-8.21274 0.18356,-0.58781 -0.132408,-1.09373 -0.533578,-1.47097 -0.359815,-0.65261 0.988641,-0.66064 0.575081,-1.2589 -0.528856,-1.65412 -0.735168,-3.51375 -1.714364,-4.94703 -0.370922,-0.58329 0.05564,-1.39272 -0.596078,-1.85072 -0.168731,-0.43965 0.217742,-1.19293 -0.442249,-1.38925 0.129018,-0.49564 0.08395,-1.06162 -0.307653,-1.39405 0.145058,-0.53215 -0.05842,-1.06693 -0.408594,-1.45654 -0.633779,-1.72904 0.0877,-3.60104 0.03834,-5.38539 0.159426,-0.83232 -0.06492,-1.94535 0.316975,-2.6105 0.449911,-0.0994 1.133238,-0.55177 1.495406,-0.47417 0.0076,0.84995 -0.04803,1.96371 0.942187,2.29778 1.173449,0.64245 2.431793,1.18124 3.75913,1.31714 0.785437,0.11112 1.210059,0.80155 2.01897,0.77394 2.188055,0.11875 4.539081,0.48635 6.614533,-0.37976 0.863465,-0.28306 1.49776,-1.5956 0.610497,-2.20165 -0.76147,-0.50884 -1.810373,-0.79797 -2.63908,-0.26437 -0.355973,-0.40234 -0.865907,-0.55974 -1.187342,-0.93259 -0.531117,-0.21139 -0.911206,0.49911 -1.196969,0.6682 1.53e-4,-0.11403 0.537899,-0.49677 0.129797,-0.76434 -0.469662,-0.23271 -0.684035,-0.9407 -1.235425,-0.89892 -0.373706,-0.29333 -0.901238,-0.34946 -1.235411,-0.78834 -0.403285,-0.55226 -1.180385,-0.13751 -1.350794,-0.76915 0.3568,-0.11042 0.403286,-0.93936 0.78356,-0.49993 1.086492,0.6684 1.9046,1.80561 3.076526,2.29297 0.40441,0.0803 0.390042,-0.45355 0.538392,-0.58646 0.922142,0.12667 1.957004,0.83021 2.807325,0.0576 0.340362,-0.15813 0.917881,-0.45743 0.975836,0.11543 0.682719,0.56831 -0.27118,1.84826 0.620112,2.36987 0.900665,0.49403 2.153882,0.64131 2.898665,-0.2067 1.012586,-0.91476 0.273304,-2.39525 -0.572042,-3.11978 -0.247994,-0.27311 -0.743762,-0.66865 -0.793167,-0.96623 1.043792,0.0653 1.103166,1.43695 1.994934,1.72575 0.162874,0.59258 0.835382,0.84772 1.047943,1.41807 0.501756,0.37984 0.692854,1.04972 1.331558,1.25946 0.397794,0.33284 0.14273,1.0504 0.653761,1.28349 0.935596,0.76492 1.515338,2.06782 2.687153,2.48044 0.306279,0.019 -0.03642,0.64293 0.269192,0.86529 0.864032,1.03758 2.036925,1.97095 2.16799,3.41782 0.274275,0.89097 0.203911,1.95092 0.706638,2.74483 0.757925,0.18526 0.931817,-0.89889 1.206495,-1.39246 0.84844,-2.03565 1.162502,-4.51986 -0.136297,-6.42896 -0.305841,-0.61166 -0.88453,-1.37915 -1.671088,-1.13414 0.167828,-1.15566 -1.063257,-1.88507 -1.63921,-2.72561 -0.392491,-0.4877 -0.893325,-0.84179 -1.432503,-1.09602 -0.368012,-0.32962 -0.262878,-1.03774 -0.894114,-1.10081 -0.241405,-0.6602 -1.128243,-0.96476 -1.0191,-1.79785 0.04953,-0.48339 -0.554768,-0.75651 -0.346108,-1.16332 0.03156,-0.60996 0.947948,-1.14511 0.466286,-1.79303 -0.658465,-0.35538 -1.416703,-0.58327 -1.952866,-1.16275 -0.687866,-0.45011 -1.185239,-1.31584 -2.008161,-1.53883 0.06733,-0.56269 -0.122144,-1.40295 -0.822009,-1.40366 -0.244229,-0.54568 -0.872719,0.0544 -1.26426,-0.29323 -0.749985,-0.21501 -1.539032,-0.23709 -2.312202,-0.3365 -0.184546,0.58076 -0.4624,1.23602 -0.466536,0.24159 -0.0022,-0.63712 -0.296104,-1.53593 -0.927515,-1.62121 0.282614,-0.9795 0.224438,-2.14026 -0.259575,-3.03326 -0.04649,-0.40872 0.0071,-1.63707 -0.706649,-1.12967 0,-0.29864 -0.523133,-0.42303 -0.764317,-0.50955 -0.07702,-0.46756 -0.209511,-1.09654 -0.76913,-1.13927 -0.284241,-0.38285 -0.698049,0.0335 -0.975844,-0.29324 -0.327958,-0.19817 -0.76867,-0.23692 -1.071969,-0.0481 -0.453526,-0.15465 -1.220473,0.0204 -1.470964,-0.24036 0.229247,-0.46063 0.225279,-1.01514 -0.100962,-1.43251 -0.20785,-0.71386 0.739598,-0.67976 1.196968,-0.95179 0.863382,-0.32199 1.733945,-0.62438 2.600619,-0.93738 0.0078,-1.2473 0.0285,-2.61635 -0.0673,-3.80721 0.402164,-0.28442 0.532624,-1.19005 -0.16344,-1.05755 -0.417085,0.38082 -1.126963,0.27304 -1.466149,0.75471 -0.392996,0.0443 -0.850675,-0.22648 -1.086398,0.26439 0.335957,0.35677 -0.184023,0.20402 -0.331695,0.0191 -0.385751,-0.10083 -0.754873,-0.0163 -0.932573,-0.44706 -0.732674,-0.44532 -2.833865,0.76603 -4.177188,0.37851 -0.354533,-0.10222 -0.769262,-0.31971 -0.879851,-0.67174 -0.07716,-0.24559 -0.235139,-0.59742 0.235555,-0.73549 0.457694,-0.30944 2.764842,-1.77241 2.840971,-2.26412 0.962337,-0.79981 2.107266,-1.38785 3.018841,-2.25453 7.506515,-4.95254 15.25459,-9.58647 22.91347,-14.31109 1.472189,-0.85299 2.909637,-1.81469 4.510877,-2.38387 0.536082,-0.44332 -0.158017,-1.00092 -0.653767,-0.98545 -0.162046,-0.16172 -0.163177,-0.60422 -0.572038,-0.43744 z"
       id="path6097"
       sodipodi:nodetypes="cccccacccccccccccccccccaaccccccccccccccccccccccccccccccccccccccccccccccccccccccccccccccccccccccccccccccccccccccccccccccccccccccccccccccccccccccccccccccccccaacccccccc" />
  </g>
</svg>
