<?xml version="1.0" encoding="UTF-8" standalone="no"?>

<svg
   xmlns:dc="http://purl.org/dc/elements/1.1/"
   xmlns:cc="http://creativecommons.org/ns#"
   xmlns:rdf="http://www.w3.org/1999/02/22-rdf-syntax-ns#"
   xmlns:svg="http://www.w3.org/2000/svg"
   xmlns="http://www.w3.org/2000/svg"
   xmlns:sodipodi="http://sodipodi.sourceforge.net/DTD/sodipodi-0.dtd"
   xmlns:inkscape="http://www.inkscape.org/namespaces/inkscape"
   inkscape:version="0.48.2 r9819"
   sodipodi:docname="lego-bug-outlined-inkscape.svg"
   width="800"
   height="800"
   id="svg6020"
   version="1.1"
>
  <g
     inkscape:label="Layer 1"
     inkscape:groupmode="layer"
     id="layer1"
     transform="scale(1.4) translate(-11,-50)"
>
    <path
       style="fill:none;stroke:#ffffff;stroke-width:1;stroke-miterlimit:4;stroke-dasharray:none"
       d="m 457.3254,59.988773 c -14.28493,11.74464 -31.49469,20.66242 -47.26096,30.76494 -42.94219,25.769967 -84.8561,53.378897 -127.864,79.047577 -7.8923,2.82063 -14.8414,8.34636 -22.3125,12.15625 -39.50721,26.08223 10.9252,-5.89978 -38.3204,25.5016 -2.3763,1.02295 -7.53873,-0.38508 -11.24511,-1.04393 -4.46604,-0.79389 -11.73169,-2.15863 -13.15329,-3.48892 4.0155,-7.30781 12.673,-10.52175 18.8366,-15.82917 51.6764,-35.91663 102.7611,-72.76561 155.28842,-107.233347 4.07234,-3.86652 12.18756,-2.56753 13.96875,-8.75 -0.30134,-3.58173 -5.57982,-4.359 -7.59375,-5.21875 0.366,-4.46496 -5.8746,-3.87543 -6.78125,-0.25 -5.9153,9.62217 -17.87254,13.82358 -26.43263,20.90842 -43.95704,30.592567 -88.38604,61.068257 -131.12984,93.091597 -3.5336,1.13315 -6.8677,3.67236 -9.9063,6.1875 -2.4543,-0.27198 -2.5069,2.8786 -4.9687,3.0625 -2.3498,1.34965 -4.01641,4.49525 -6.90631,2.59375 -2.9611,-0.58918 -3.0999,3.42231 -4.3437,4.1875 -5.4281,0.54951 -8.7188,7.09627 -13.5313,7.84375 -65.18669,11.12863 -110.754149,18.77168 -128.610649,34.50718 0,0 -1.33183,4.38983 -1.73289,18.94942 2.27341,9.54496 4.36083,10.68827 10.90603,13.69965 2.242,0.99079 3.44087,0.26399 6.0313,3.625 2.59043,3.36101 0.70317,9.31729 2.81604,13.34149 2.48315,4.72944 7.58789,7.5405 11.02766,11.62726 4.26617,5.06861 7.6922,10.93812 11.875,15.9375 4.4288,2.21295 7.6132,6.5986 12.2813,8.34375 2.458799,-0.97917 6.075599,2.22726 7.156199,2.9375 -2.4765,2.05545 -1.8631,5.76758 -5.871599,5.99242 -8.7484,4.99561 -18.8936,8.64556 -26.1596,15.78882 -0.8076,1.55941 -0.375,3.25963 -2.5938,2.96875 -2.7927,0.26332 -4.8085,3.96061 -7.1562,1.4375 -4.2122,1.00354 -8.5593,3.7522 -9.5,8.03125 -0.8928,1.7284 -0.362,3.48299 -2.8125,3.65625 -6.4275,5.51646 -12.041,11.79321 -18.2011,17.74257 -4.3221,4.84883 -8.8925,9.92499 -10.7364,16.16368 -2.1333,4.34636 -8.6111,9.1144 -5.4375,14.4375 5.194,5.7284 12.9741,8.32364 20.5937,8.28125 0.4022,-2.68532 -1.5537,-7.4143 -0.031,-9.1875 7.9126,-4.0207 14.5411,-10.69575 20.3438,-17.34375 3.5709,-5.90907 9.6411,-10.28451 14.0312,-15.75 12.7595,-10.6557 28.882899,-16.34655 42.624999,-25.53125 12.17851,-6.42046 26.91241,-6.33946 38.40631,-14 1.8373,-2.11177 2.9896,-5.73869 6.6562,-3.875 3.4558,0.44802 3.9611,1.78284 0.2188,2.75 -7.6496,2.52034 -14.8875,6.28703 -20.4063,12.125 -14.6877,9.77422 -30.33381,18.61629 -43.781209,29.96875 -8.4501,11.16731 -20.7842,19.64323 -28.5625,31.1875 -4.1817,4.57393 -10.504,5.69035 -14.3125,10.75 -3.9168,5.04608 -11.1906,8.97383 -11.75,15.875 1.0596,2.48521 -0.094,4.52123 -2.75,4.46875 -11.9727,6.54458 -19.7811,19.10402 -21.1875,32.53125 -0.7987,8.97365 -1.7119,19.39166 3.375,27.25 4.3501,3.13124 6.1951,-3.82766 7.4062,-6.71875 3.5618,-10.87585 8.6452,-21.42003 18,-28.4375 3.4357,-3.50853 9.0098,-6.84205 8.7813,-12.25 2.4764,-1.3658 5.7474,1.73375 8.0937,-1 6.7517,-5.85906 13.8837,-11.89279 18.3438,-19.71875 0.522,-3.93211 4.1297,-6.60144 7.7187,-7.40625 2.7608,-1.63628 0.9844,-6.00172 4.7188,-5.4375 2.8357,-0.35777 3.1544,-4.24481 4.125,-5.375 3.707199,0.37548 5.955699,-3.91233 5.468699,-6.78125 6.3673,0.88066 8.5805,-7.2581 13.52401,-9.75824 6.6738,-5.10402 13.5415,-10.23239 20.226,-15.05426 11.3079,-6.76549 21.0006,-16.36906 33.7977,-20.76059 7.9091,-4.60787 18.9357,-4.5175 24.7023,-12.23941 1.04161,-5.0017 7.43281,-1.16029 10.40631,-0.8125 6.7607,2.51147 14.198,4.48106 20.8125,6.59375 0.7142,1.39705 4.7192,1.35174 1.7187,2.5 -2.1852,2.63873 -4.8414,4.57201 -8.4062,4.40625 -6.6729,2.51368 -9.5491,10.33605 -11.2813,16.65625 0.7771,11.93101 -2.6365,23.96896 -2.6969,35.99353 -0.1149,8.54979 -3.0491,18.22 2.3532,25.75647 1.7295,3.56957 -0.053,9.12935 4,11.34375 -1.0564,3.07048 -0.676,7.03033 2.125,8.53125 -0.4564,3.54248 1.0041,6.75755 2.1875,9.84375 -1.5451,3.87254 2.7193,6.12001 3.2812,9.3125 -1.3689,12.75723 3.4029,25.0852 6.6875,37.1875 0.9479,3.18859 4.8951,2.15097 6.875,3.125 0.931,3.82739 -1.051,8.10279 1.75,11.625 4.0271,6.3489 9.3375,11.94166 11.9688,19.1875 5.9545,12.00143 10.0518,25.35122 18.4375,35.8125 4.5424,1.77439 2.9529,-5.01908 1.7626,-7.36024 -6.5344,-16.80038 -11.6472,-35.1783 -8.2314,-53.38976 1.1933,-3.82124 -0.8608,-7.11012 -3.4687,-9.5625 -2.3391,-4.24246 6.427,-4.29476 3.7385,-8.18395 -3.438,-10.75319 -4.7792,-22.84229 -11.1448,-32.1598 -2.4113,-3.79191 0.3617,-9.05385 -3.875,-12.03125 -1.0969,-2.85806 1.4155,-7.75512 -2.875,-9.03125 0.8387,-3.22211 0.5457,-6.90143 -2,-9.0625 0.943,-3.45945 -0.3798,-6.93593 -2.6562,-9.46875 -4.1201,-11.24018 0.5701,-23.40981 0.2492,-35.00957 1.0364,-5.4108 -0.422,-12.64637 2.0606,-16.97044 2.9248,-0.64688 7.367,-3.587 9.7214,-3.08249 0.05,5.52538 -0.3122,12.76576 6.125,14.9375 7.6284,4.17649 15.8087,7.67903 24.4375,8.5625 5.106,0.72269 7.8664,5.21072 13.125,5.03125 14.2242,0.77213 29.50784,3.16171 43.00002,-2.46875 5.61325,-1.84016 9.73669,-10.37274 3.96875,-14.3125 -4.9502,-3.30804 -11.76895,-5.18754 -17.15625,-1.71875 -2.31412,-2.61554 -5.62912,-3.63872 -7.71872,-6.0625 -3.4527,-1.37433 -5.9236,3.2445 -7.7813,4.34375 10e-4,-0.74132 3.4968,-3.22937 0.8438,-4.96875 -3.0532,-1.51288 -4.4468,-6.11541 -8.0313,-5.84375 -2.4294,-1.90693 -5.8588,-2.27181 -8.0312,-5.125 -2.6217,-3.59008 -7.6735,-0.89346 -8.7813,-5 2.3195,-0.71802 2.6217,-6.10667 5.0938,-3.25 7.0631,4.34514 12.3815,11.73793 20,14.90625 2.629,0.52193 2.5356,-2.94856 3.5,-3.8125 5.9947,0.82365 12.72216,5.39706 18.24997,0.375 2.21264,-1.02792 5.96699,-2.97365 6.34375,0.75 4.43825,3.69452 -1.7629,12.01524 4.03125,15.40625 5.85508,3.21159 14.00204,4.16893 18.84375,-1.34375 6.58267,-5.9467 1.77671,-15.5712 -3.71875,-20.28125 -1.61217,-1.77538 -4.83508,-4.34679 -5.15625,-6.28125 6.78552,0.42395 7.1715,9.34139 12.96875,11.21875 1.05882,3.85233 5.43068,5.51093 6.8125,9.21875 3.26184,2.4692 4.50414,6.824 8.65625,8.1875 2.58599,2.16373 0.92787,6.82848 4.25,8.34375 6.08215,4.97264 9.85096,13.44253 17.46874,16.125 1.99107,0.12333 -0.23679,4.17952 1.75,5.625 5.61693,6.74514 13.2417,12.81293 14.09375,22.21875 1.783,5.79208 1.32557,12.68261 4.59375,17.84375 4.92715,1.20425 6.05757,-5.84356 7.84321,-9.05224 5.51558,-13.23336 7.55725,-29.38287 -0.88602,-41.79361 -1.98823,-3.97632 -5.75016,-8.96566 -10.86344,-7.3729 1.091,-7.51268 -6.91208,-12.25445 -10.65625,-17.71875 -2.55152,-3.1704 -5.80739,-5.47229 -9.3125,-7.125 -2.39239,-2.14279 -1.70893,-6.74619 -5.81249,-7.15625 -1.56934,-4.29173 -7.33453,-6.27175 -6.625,-11.6875 0.32196,-3.14245 -3.60647,-4.91791 -2.25,-7.5625 0.20518,-3.96531 6.16246,-7.44424 3.03125,-11.65625 -4.28058,-2.31025 -9.20976,-3.79165 -12.69527,-7.55877 -4.4717,-2.9261 -7.70505,-8.5541 -13.05473,-10.00372 0.43778,-3.65799 -0.79406,-9.12037 -5.34375,-9.125 -1.58769,-3.54744 -5.67341,0.3539 -8.21875,-1.90625 -4.87553,-1.39774 -10.005,-1.54134 -15.03125,-2.1875 -1.19971,3.7754 -3.00599,8.03513 -3.03288,1.57055 -0.0149,-4.14181 -1.92492,-9.98488 -6.02962,-10.5393 1.83722,-6.36754 1.45903,-13.91347 -1.68747,-19.71875 -0.3022,-2.6569 0.046,-10.64222 -4.5938,-7.34375 0,-1.94141 -3.4008,-2.75003 -4.9687,-3.3125 -0.5007,-3.03952 -1.362,-7.12838 -5,-7.40625 -1.8478,-2.48879 -4.5379,0.21777 -6.3438,-1.90625 -2.132,-1.28834 -4.997,-1.54023 -6.9687,-0.3125 -2.9483,-1.00529 -7.9341,0.13254 -9.5625,-1.5625 1.4903,-2.99453 1.4645,-6.59924 -0.6563,-9.3125 -1.3512,-4.64076 4.808,-4.41905 7.7813,-6.1875 5.6127,-2.09321 11.2721,-4.05895 16.9062,-6.09375 0.051,-8.1085 0.1853,-17.00848 -0.4375,-24.75 2.6144,-1.84904 3.4625,-7.73642 -1.0625,-6.875 -2.7114,2.47564 -7.3262,1.77499 -9.5312,4.90625 -2.5548,0.28807 -5.5301,-1.47236 -7.0625,1.71875 2.184,2.31932 -1.1963,1.32629 -2.1563,0.125 -2.5077,-0.65523 -4.9073,-0.10554 -6.0625,-2.90625 -4.763,-2.89498 -18.4225,4.97988 -27.15523,2.46068 -2.30476,-0.66487 -5.00085,-2.07845 -5.71977,-4.36693 -0.50156,-1.59656 -1.5286,-3.88378 1.5313,-4.78125 2.9754,-2.01163 17.9738,-11.52216 18.4687,-14.71875 6.256,-5.19941 13.699,-9.02223 19.625,-14.65625 48.79866,-32.19574 99.16764,-62.3202 148.95678,-93.034157 9.57046,-5.5451 18.9151,-11.79703 29.32448,-15.49711 3.485,-2.88194 -1.02721,-6.50685 -4.25,-6.40625 -1.05343,-1.05136 -1.06078,-3.92798 -3.71875,-2.84375 z"
       id="path6097"
       sodipodi:nodetypes="cccccacccccccccccccccccaaccccccccccccccccccccccccccccccccccccccccccccccccccccccccccccccccccccccccccccccccccccccccccccccccccccccccccccccccccccccccccccccccccaacccccccc" />
  </g>
</svg>
